<svg preserveAspectRatio="none" overflow="visible" style="display: block;" width="22" height="22" viewBox="0 0 22 22" fill="none" xmlns="http://www.w3.org/2000/svg">
<g id="Group 714">
<path id="Vector 178" d="M8 15.9708V6.02924C8 5.38333 7.68807 4.77719 7.16248 4.40177L4.16248 2.25891C2.83874 1.31339 1 2.25963 1 3.88638V18.1136C1 19.7404 2.83874 20.6866 4.16248 19.7411L7.16248 17.5982C7.68807 17.2228 8 16.6167 8 15.9708Z" stroke="white" stroke-width="2" stroke-linecap="round"/>
<path id="Vector 179" d="M14 15.9708V6.02924C14 5.38333 14.3119 4.77719 14.8375 4.40177L17.8375 2.25891C19.1613 1.31339 21 2.25963 21 3.88638V18.1136C21 19.7404 19.1613 20.6866 17.8375 19.7411L14.8375 17.5982C14.3119 17.2228 14 16.6167 14 15.9708Z" stroke="white" stroke-width="2" stroke-linecap="round"/>
</g>
</svg>
